emg_normalized.mot
version=1
nRows=52
nColumns=17
in_degrees=yes
endheader
time	VM	VL	RF	GRA	TA	ADDLONG	SEMIMEM	BFLH	GM	GL	TFL	GLUTMAX	GLUTMED	PIRI	OBTINT	QF
2.910000	0.746905	0.804420	0.487501	0.802381	0.477875	0.020369	0.584987	1.000000	0.651779	0.264982	0.197082	1.000000	0.669675	0.898341	0.729270	0.125945
2.910500	0.752925	0.810504	0.493042	0.805663	0.472319	0.020488	0.586180	0.993490	0.652311	0.266842	0.198937	0.998097	0.667206	0.901979	0.735643	0.124998
2.911000	0.758896	0.816551	0.498595	0.808993	0.466770	0.020607	0.587393	0.987039	0.652806	0.268736	0.200824	0.996123	0.664735	0.905591	0.742004	0.124075
2.911500	0.764818	0.822557	0.504161	0.812361	0.461232	0.020725	0.588626	0.980651	0.653265	0.270664	0.202745	0.994081	0.662264	0.909171	0.748347	0.123172
2.912000	0.770690	0.828516	0.509739	0.815771	0.455706	0.020843	0.589875	0.974323	0.653690	0.272630	0.204697	0.991975	0.659789	0.912712	0.754668	0.122291
2.912500	0.776510	0.834425	0.515321	0.819221	0.450197	0.020962	0.591140	0.968057	0.654083	0.274630	0.206679	0.989810	0.657314	0.916218	0.760961	0.121429
2.913000	0.782277	0.840282	0.520911	0.822706	0.444707	0.021079	0.592419	0.961858	0.654444	0.276670	0.208690	0.987589	0.654836	0.919684	0.767220	0.120589
2.913500	0.787992	0.846078	0.526509	0.826225	0.439237	0.021196	0.593709	0.955722	0.654775	0.278747	0.210729	0.985318	0.652354	0.923112	0.773442	0.119767
2.914000	0.793654	0.851812	0.532103	0.829778	0.433792	0.021313	0.595010	0.949654	0.655078	0.280862	0.212793	0.982999	0.649872	0.926496	0.779622	0.118965
2.914500	0.799261	0.857476	0.537706	0.833358	0.428374	0.021428	0.596319	0.943653	0.655355	0.283016	0.214883	0.980639	0.647384	0.929838	0.785758	0.118181
2.915000	0.804814	0.863071	0.543304	0.836963	0.422984	0.021543	0.597634	0.937722	0.655609	0.285212	0.216995	0.978241	0.644896	0.933128	0.791847	0.117416
2.915500	0.810310	0.868586	0.548898	0.840594	0.417626	0.021657	0.598952	0.931861	0.655842	0.287446	0.219130	0.975808	0.642407	0.936372	0.797886	0.116668
2.916000	0.815751	0.874021	0.554488	0.844244	0.412301	0.021771	0.600271	0.926073	0.656058	0.289722	0.221284	0.973345	0.639915	0.939565	0.803875	0.115939
2.916500	0.821138	0.879369	0.560070	0.847911	0.407011	0.021882	0.601590	0.920359	0.656256	0.292038	0.223458	0.970856	0.637427	0.942699	0.809814	0.115227
2.917000	0.826466	0.884627	0.565644	0.851594	0.401759	0.021991	0.602905	0.914719	0.656441	0.294397	0.225650	0.968342	0.634935	0.945778	0.815701	0.114531
2.917500	0.831740	0.889789	0.571206	0.855283	0.396546	0.022101	0.604213	0.909158	0.656615	0.296798	0.227857	0.965809	0.632443	0.948795	0.821537	0.113850
2.918000	0.836958	0.894852	0.576751	0.858981	0.391374	0.022208	0.605514	0.903675	0.656779	0.299242	0.230079	0.963260	0.629955	0.951749	0.827321	0.113185
2.918500	0.842118	0.899813	0.582279	0.862681	0.386246	0.022313	0.606802	0.898270	0.656937	0.301729	0.232314	0.960699	0.627470	0.954636	0.833055	0.112536
2.919000	0.847222	0.904669	0.587792	0.866379	0.381162	0.022417	0.608078	0.892947	0.657090	0.304258	0.234562	0.958128	0.624981	0.957453	0.838736	0.111902
2.919500	0.852266	0.909415	0.593275	0.870070	0.376123	0.022519	0.609339	0.887706	0.657237	0.306832	0.236819	0.955551	0.622496	0.960196	0.844364	0.111281
2.920000	0.857252	0.914049	0.598735	0.873754	0.371133	0.022619	0.610582	0.882550	0.657386	0.309448	0.239086	0.952972	0.620015	0.962861	0.849940	0.110673
2.920500	0.862178	0.918571	0.604169	0.877421	0.366192	0.022718	0.611804	0.877477	0.657533	0.312109	0.241360	0.950393	0.617533	0.965447	0.855462	0.110080
2.921000	0.867043	0.922975	0.609567	0.881071	0.361302	0.022812	0.613006	0.872493	0.657686	0.314814	0.243641	0.947819	0.615051	0.967955	0.860929	0.109499
2.921500	0.871846	0.927260	0.614932	0.884701	0.356463	0.022905	0.614185	0.867592	0.657844	0.317565	0.245926	0.945250	0.612573	0.970381	0.866340	0.108930
2.922000	0.876586	0.931424	0.620260	0.888307	0.351676	0.022997	0.615336	0.862780	0.658007	0.320361	0.248215	0.942690	0.610095	0.972721	0.871693	0.108373
2.922500	0.881263	0.935465	0.625543	0.891881	0.346945	0.023085	0.616459	0.858056	0.658182	0.323200	0.250506	0.940142	0.607620	0.974978	0.876986	0.107826
2.923000	0.885874	0.939382	0.630785	0.895431	0.342266	0.023171	0.617555	0.853421	0.658367	0.326087	0.252798	0.937608	0.605149	0.977154	0.882220	0.107291
2.923500	0.890420	0.943177	0.635978	0.898945	0.337645	0.023253	0.618620	0.848873	0.658563	0.329018	0.255091	0.935089	0.602681	0.979239	0.887390	0.106765
2.924000	0.894896	0.946847	0.641117	0.902422	0.333080	0.023334	0.619654	0.844412	0.658774	0.331996	0.257383	0.932589	0.600213	0.981239	0.892496	0.106249
2.924500	0.899304	0.950394	0.646204	0.905863	0.328572	0.023412	0.620655	0.840042	0.658999	0.335020	0.259674	0.930108	0.597751	0.983148	0.897533	0.105743
2.925000	0.903640	0.953819	0.651229	0.909262	0.324124	0.023486	0.621622	0.835757	0.659239	0.338089	0.261962	0.927649	0.595293	0.984971	0.902502	0.105243
2.925500	0.907904	0.957120	0.656196	0.912619	0.319735	0.023558	0.622555	0.831559	0.659497	0.341205	0.264247	0.925212	0.592842	0.986697	0.907398	0.104752
2.926000	0.912092	0.960299	0.661098	0.915929	0.315406	0.023628	0.623453	0.827448	0.659773	0.344367	0.266527	0.922800	0.590395	0.988332	0.912219	0.104268
2.926500	0.916201	0.963355	0.665935	0.919191	0.311137	0.023693	0.624315	0.823424	0.660067	0.347576	0.268802	0.920412	0.587954	0.989870	0.916962	0.103791
2.927000	0.920230	0.966290	0.670702	0.922404	0.306930	0.023755	0.625140	0.819484	0.660384	0.350831	0.271071	0.918048	0.585523	0.991310	0.921623	0.103321
2.927500	0.924176	0.969103	0.675395	0.925566	0.302785	0.023815	0.625930	0.815629	0.660720	0.354132	0.273332	0.915711	0.583096	0.992652	0.926199	0.102856
2.928000	0.928036	0.971793	0.680011	0.928675	0.298701	0.023871	0.626683	0.811859	0.661078	0.357480	0.275583	0.913400	0.580679	0.993888	0.930687	0.102396
2.928500	0.931807	0.974361	0.684548	0.931731	0.294682	0.023925	0.627401	0.808173	0.661459	0.360872	0.277825	0.911114	0.578268	0.995019	0.935082	0.101942
2.929000	0.935484	0.976806	0.689004	0.934734	0.290726	0.023974	0.628080	0.804571	0.661864	0.364310	0.280056	0.908854	0.575871	0.996044	0.939379	0.101493
2.929500	0.939067	0.979128	0.693374	0.937684	0.286833	0.024021	0.628723	0.801051	0.662295	0.367794	0.282274	0.906619	0.573481	0.996956	0.943577	0.101046
2.930000	0.942553	0.981326	0.697662	0.940576	0.283005	0.024065	0.629328	0.797612	0.662751	0.371321	0.284477	0.904407	0.571098	0.997754	0.947669	0.100604
2.930500	0.945937	0.983402	0.701855	0.943409	0.279240	0.024104	0.629895	0.794252	0.663234	0.374894	0.286665	0.902218	0.568729	0.998431	0.951652	0.100164
2.931000	0.949220	0.985355	0.705955	0.946186	0.275540	0.024141	0.630423	0.790973	0.663743	0.378511	0.288836	0.900053	0.566369	0.998994	0.955520	0.099726
2.931500	0.952398	0.987184	0.709964	0.948899	0.271904	0.024176	0.630911	0.787770	0.664281	0.382171	0.290988	0.897906	0.564020	0.999433	0.959267	0.099292
2.932000	0.955470	0.988890	0.713871	0.951551	0.268334	0.024206	0.631359	0.784643	0.664846	0.385875	0.293120	0.895779	0.561681	0.999750	0.962890	0.098858
2.932500	0.958434	0.990475	0.717675	0.954136	0.264829	0.024233	0.631764	0.781592	0.665438	0.389621	0.295232	0.893670	0.559356	0.999941	0.966382	0.098425
2.933000	0.961289	0.991937	0.721378	0.956654	0.261387	0.024257	0.632127	0.778614	0.666061	0.393411	0.297320	0.891576	0.557040	1.000000	0.969739	0.097992
2.933500	0.964036	0.993277	0.724969	0.959099	0.258012	0.024277	0.632446	0.775712	0.666711	0.397240	0.299383	0.889495	0.554735	0.999933	0.972953	0.097559
2.934000	0.966671	0.994494	0.728454	0.961475	0.254701	0.024295	0.632721	0.772881	0.667393	0.401109	0.301419	0.887425	0.552444	0.999734	0.976019	0.097124
2.934500	0.969198	0.995590	0.731821	0.963773	0.251455	0.024309	0.632948	0.770125	0.668105	0.405019	0.303429	0.885362	0.550162	0.999397	0.978930	0.096690
2.935000	0.971616	0.996564	0.735072	0.965995	0.248275	0.024318	0.633126	0.767440	0.668850	0.408965	0.305408	0.883306	0.547898	0.998932	0.981680	0.096255
2.935500	0.973928	0.997417	0.738205	0.968137	0.245158	0.024325	0.633255	0.764828	0.669627	0.412949	0.307355	0.881252	0.545644	0.998329	0.984263	0.095818
